{
  "asset": {
    "version": "2.0",
    "generator": "THREE.GLTFExporter"
  },
  "scenes": [
    {
      "nodes": [
        7
      ],
      "name": "AuxScene"
    }
  ],
  "scene": 0,
  "nodes": [
    {
      "name": "group_0_2829873",
      "mesh": 0
    },
    {
      "name": "group_0_14860437",
      "mesh": 1
    },
    {
      "name": "group_0_15277357",
      "mesh": 2
    },
    {
      "name": "group_0_16089887",
      "mesh": 3
    },
    {
      "name": "group_0_16448250",
      "mesh": 4
    },
    {
      "name": "group_0_16768282",
      "mesh": 5
    },
    {
      "name": "group_0_16777215",
      "mesh": 6
    },
    {
      "children": [
        0,
        1,
        2,
        3,
        4,
        5,
        6
      ]
    }
  ],
  "bufferViews": [
    {
      "buffer": 0,
      "byteOffset": 0,
      "byteLength": 232668,
      "target": 34962,
      "byteStride": 12
    },
    {
      "buffer": 0,
      "byteOffset": 232668,
      "byteLength": 232668,
      "target": 34962,
      "byteStride": 12
    },
    {
      "buffer": 0,
      "byteOffset": 465336,
      "byteLength": 38780,
      "target": 34963
    },
    {
      "buffer": 0,
      "byteOffset": 504116,
      "byteLength": 21636,
      "target": 34962,
      "byteStride": 12
    },
    {
      "buffer": 0,
      "byteOffset": 525752,
      "byteLength": 21636,
      "target": 34962,
      "byteStride": 12
    },
    {
      "buffer": 0,
      "byteOffset": 547388,
      "byteLength": 3608,
      "target": 34963
    },
    {
      "buffer": 0,
      "byteOffset": 550996,
      "byteLength": 690336,
      "target": 34962,
      "byteStride": 12
    },
    {
      "buffer": 0,
      "byteOffset": 1241332,
      "byteLength": 690336,
      "target": 34962,
      "byteStride": 12
    },
    {
      "buffer": 0,
      "byteOffset": 1931668,
      "byteLength": 115056,
      "target": 34963
    },
    {
      "buffer": 0,
      "byteOffset": 2046724,
      "byteLength": 1440,
      "target": 34962,
      "byteStride": 12
    },
    {
      "buffer": 0,
      "byteOffset": 2048164,
      "byteLength": 1440,
      "target": 34962,
      "byteStride": 12
    },
    {
      "buffer": 0,
      "byteOffset": 2049604,
      "byteLength": 240,
      "target": 34963
    },
    {
      "buffer": 0,
      "byteOffset": 2049844,
      "byteLength": 1728,
      "target": 34962,
      "byteStride": 12
    },
    {
      "buffer": 0,
      "byteOffset": 2051572,
      "byteLength": 1728,
      "target": 34962,
      "byteStride": 12
    },
    {
      "buffer": 0,
      "byteOffset": 2053300,
      "byteLength": 288,
      "target": 34963
    },
    {
      "buffer": 0,
      "byteOffset": 2053588,
      "byteLength": 3888,
      "target": 34962,
      "byteStride": 12
    },
    {
      "buffer": 0,
      "byteOffset": 2057476,
      "byteLength": 3888,
      "target": 34962,
      "byteStride": 12
    },
    {
      "buffer": 0,
      "byteOffset": 2061364,
      "byteLength": 648,
      "target": 34963
    },
    {
      "buffer": 0,
      "byteOffset": 2062012,
      "byteLength": 61992,
      "target": 34962,
      "byteStride": 12
    },
    {
      "buffer": 0,
      "byteOffset": 2124004,
      "byteLength": 61992,
      "target": 34962,
      "byteStride": 12
    },
    {
      "buffer": 0,
      "byteOffset": 2185996,
      "byteLength": 10332,
      "target": 34963
    }
  ],
  "buffers": [
    {
      "byteLength": 2196328,
      "uri": "data:application/octet-stream;base64,"
    }
  ],
  "accessors": [
    {
      "bufferView": 0,
      "componentType": 5126,
      "count": 19389,
      "max": [
        54.777000427246094,
        -18.44099998474121,
        9.149999618530273
      ],
      "min": [
        -34.62099838256836,
        -44.777000427246094,
        -16
      ],
      "type": "VEC3"
    },
    {
      "bufferView": 1,
      "componentType": 5126,
      "count": 19389,
      "max": [
        1,
        1,
        1
      ],
      "min": [
        -0.9999480247497559,
        -1,
        -1
      ],
      "type": "VEC3"
    },
    {
      "bufferView": 2,
      "componentType": 5123,
      "count": 19389,
      "max": [
        19388
      ],
      "min": [
        0
      ],
      "type": "SCALAR"
    },
    {
      "bufferView": 3,
      "componentType": 5126,
      "count": 1803,
      "max": [
        64,
        -11.949000358581543,
        8.427000045776367
      ],
      "min": [
        -48,
        -54,
        -15.888999938964844
      ],
      "type": "VEC3"
    },
    {
      "bufferView": 4,
      "componentType": 5126,
      "count": 1803,
      "max": [
        0.7071240544319153,
        0.7071071863174438,
        1
      ],
      "min": [
        -0.70710688829422,
        -0.7071240544319153,
        -1
      ],
      "type": "VEC3"
    },
    {
      "bufferView": 5,
      "componentType": 5123,
      "count": 1803,
      "max": [
        1802
      ],
      "min": [
        0
      ],
      "type": "SCALAR"
    },
    {
      "bufferView": 6,
      "componentType": 5126,
      "count": 57528,
      "max": [
        29,
        15.350000381469727,
        4.86299991607666
      ],
      "min": [
        -45.90700149536133,
        -49,
        0
      ],
      "type": "VEC3"
    },
    {
      "bufferView": 7,
      "componentType": 5126,
      "count": 57528,
      "max": [
        1,
        1,
        1
      ],
      "min": [
        -1,
        -1,
        -1
      ],
      "type": "VEC3"
    },
    {
      "bufferView": 8,
      "componentType": 5123,
      "count": 57528,
      "max": [
        57527
      ],
      "min": [
        0
      ],
      "type": "SCALAR"
    },
    {
      "bufferView": 9,
      "componentType": 5126,
      "count": 120,
      "max": [
        39.16899871826172,
        0.625,
        4
      ],
      "min": [
        32.83100128173828,
        -10.625,
        0
      ],
      "type": "VEC3"
    },
    {
      "bufferView": 10,
      "componentType": 5126,
      "count": 120,
      "max": [
        1,
        1,
        1
      ],
      "min": [
        -1,
        -1,
        -1
      ],
      "type": "VEC3"
    },
    {
      "bufferView": 11,
      "componentType": 5123,
      "count": 120,
      "max": [
        119
      ],
      "min": [
        0
      ],
      "type": "SCALAR"
    },
    {
      "bufferView": 12,
      "componentType": 5126,
      "count": 144,
      "max": [
        55.54600143432617,
        -20.767000198364258,
        9.038999557495117
      ],
      "min": [
        -29.86400032043457,
        -45.54600143432617,
        6.815999984741211
      ],
      "type": "VEC3"
    },
    {
      "bufferView": 13,
      "componentType": 5126,
      "count": 144,
      "max": [
        0.7071070075035095,
        0.7071070075035095,
        1
      ],
      "min": [
        -0.7071070075035095,
        -0.7071070075035095,
        -1
      ],
      "type": "VEC3"
    },
    {
      "bufferView": 14,
      "componentType": 5123,
      "count": 144,
      "max": [
        143
      ],
      "min": [
        0
      ],
      "type": "SCALAR"
    },
    {
      "bufferView": 15,
      "componentType": 5126,
      "count": 324,
      "max": [
        -11.390000343322754,
        0.625,
        4
      ],
      "min": [
        -20.610000610351562,
        -10.625,
        0
      ],
      "type": "VEC3"
    },
    {
      "bufferView": 16,
      "componentType": 5126,
      "count": 324,
      "max": [
        1,
        1,
        1
      ],
      "min": [
        -0.9720534086227417,
        -1,
        -1
      ],
      "type": "VEC3"
    },
    {
      "bufferView": 17,
      "componentType": 5123,
      "count": 324,
      "max": [
        323
      ],
      "min": [
        0
      ],
      "type": "SCALAR"
    },
    {
      "bufferView": 18,
      "componentType": 5126,
      "count": 5166,
      "max": [
        60.73899841308594,
        -31.090999603271484,
        8.428000450134277
      ],
      "min": [
        -44.1150016784668,
        -50.73899841308594,
        -15.847999572753906
      ],
      "type": "VEC3"
    },
    {
      "bufferView": 19,
      "componentType": 5126,
      "count": 5166,
      "max": [
        0.9999077916145325,
        0.9999009370803833,
        1
      ],
      "min": [
        -0.9999340176582336,
        -1,
        -1
      ],
      "type": "VEC3"
    },
    {
      "bufferView": 20,
      "componentType": 5123,
      "count": 5166,
      "max": [
        5165
      ],
      "min": [
        0
      ],
      "type": "SCALAR"
    }
  ],
  "materials": [
    {
      "pbrMetallicRoughness": {
        "baseColorFactor": [
          0.16862745098039217,
          0.1803921568627451,
          0.19215686274509805,
          1
        ],
        "metallicFactor": 0.5,
        "roughnessFactor": 0.5
      },
      "name": "color_2829873"
    },
    {
      "pbrMetallicRoughness": {
        "baseColorFactor": [
          0.8862745098039215,
          0.7529411764705882,
          0.5843137254901961,
          1
        ],
        "metallicFactor": 0.5,
        "roughnessFactor": 0.5
      },
      "name": "color_14860437"
    },
    {
      "pbrMetallicRoughness": {
        "baseColorFactor": [
          0.9137254901960784,
          0.11372549019607843,
          0.17647058823529413,
          1
        ],
        "metallicFactor": 0.5,
        "roughnessFactor": 0.5
      },
      "name": "color_15277357"
    },
    {
      "pbrMetallicRoughness": {
        "baseColorFactor": [
          0.9607843137254902,
          0.5137254901960784,
          0.12156862745098039,
          1
        ],
        "metallicFactor": 0.5,
        "roughnessFactor": 0.5
      },
      "name": "color_16089887"
    },
    {
      "pbrMetallicRoughness": {
        "baseColorFactor": [
          0.9803921568627451,
          0.9803921568627451,
          0.9803921568627451,
          1
        ],
        "metallicFactor": 0.5,
        "roughnessFactor": 0.5
      },
      "name": "color_16448250"
    },
    {
      "pbrMetallicRoughness": {
        "baseColorFactor": [
          1,
          0.8666666666666667,
          0.10196078431372549,
          1
        ],
        "metallicFactor": 0.5,
        "roughnessFactor": 0.5
      },
      "name": "color_16768282"
    },
    {
      "pbrMetallicRoughness": {
        "metallicFactor": 0.5,
        "roughnessFactor": 0.5
      },
      "name": "color_16777215"
    }
  ],
  "meshes": [
    {
      "primitives": [
        {
          "mode": 4,
          "attributes": {
            "POSITION": 0,
            "NORMAL": 1
          },
          "indices": 2,
          "material": 0
        }
      ]
    },
    {
      "primitives": [
        {
          "mode": 4,
          "attributes": {
            "POSITION": 3,
            "NORMAL": 4
          },
          "indices": 5,
          "material": 1
        }
      ]
    },
    {
      "primitives": [
        {
          "mode": 4,
          "attributes": {
            "POSITION": 6,
            "NORMAL": 7
          },
          "indices": 8,
          "material": 2
        }
      ]
    },
    {
      "primitives": [
        {
          "mode": 4,
          "attributes": {
            "POSITION": 9,
            "NORMAL": 10
          },
          "indices": 11,
          "material": 3
        }
      ]
    },
    {
      "primitives": [
        {
          "mode": 4,
          "attributes": {
            "POSITION": 12,
            "NORMAL": 13
          },
          "indices": 14,
          "material": 4
        }
      ]
    },
    {
      "primitives": [
        {
          "mode": 4,
          "attributes": {
            "POSITION": 15,
            "NORMAL": 16
          },
          "indices": 17,
          "material": 5
        }
      ]
    },
    {
      "primitives": [
        {
          "mode": 4,
          "attributes": {
            "POSITION": 18,
            "NORMAL": 19
          },
          "indices": 20,
          "material": 6
        }
      ]
    }
  ]
}